<?xml version="1.0" encoding="utf-8"?>
<!-- Generator: Adobe Illustrator 22.1.0, SVG Export Plug-In . SVG Version: 6.00 Build 0)  -->
<svg version="1.1" id="图层_1" xmlns="http://www.w3.org/2000/svg" xmlns:xlink="http://www.w3.org/1999/xlink" x="0px" y="0px"
	 viewBox="0 0 200 200" style="enable-background:new 0 0 200 200;" xml:space="preserve">
<style type="text/css">
	.st0{fill:#FFFFFF;}
</style>
<g>
	<path d="M185.1,76.5c-0.3-1.5-1.3-2.9-2.7-3.5c-5.8-2.8-9.5-8.7-9.5-15.1s3.7-12.4,9.5-15.1c1.4-0.7,2.4-2,2.7-3.5
		s-0.1-3.1-1.2-4.3c-2.6-2.9-6.3-4.5-10.1-4.5H19.8c-2.8,0-5,2.2-5,5v45c0,2.8,2.2,5,5,5h24.3c1-3.5,2.6-6.9,4.8-10H24.8v-35h144.7
		c-4.1,4.8-6.5,11-6.5,17.5s2.4,12.7,6.5,17.5h-67.8c2.2,3.1,3.8,6.5,4.8,10h67.4c3.8,0,7.5-1.6,10.1-4.5
		C185,79.7,185.4,78.1,185.1,76.5z"/>
	<path d="M182.4,157.3c-5.8-2.8-9.5-8.7-9.5-15.1s3.7-12.4,9.5-15.1c1.4-0.7,2.4-2,2.7-3.5s-0.1-3.1-1.2-4.3
		c-2.6-2.9-6.3-4.5-10.1-4.5h-67.2c-1.4,2.2-3.1,4.2-4.9,6.1c-1.4,1.4-3,2.8-4.6,3.9h72.3c-4.1,4.8-6.5,11-6.5,17.5
		c0,6.5,2.4,12.7,6.5,17.5H24.8v-35h28.7c-1.6-1.2-3.2-2.5-4.6-3.9c-1.9-1.9-3.5-3.9-4.9-6.1H19.8c-2.8,0-5,2.2-5,5v45
		c0,2.8,2.2,5,5,5h154.1c3.8,0,7.5-1.6,10.1-4.5c1.1-1.2,1.5-2.8,1.2-4.3S183.8,158,182.4,157.3z"/>
	<g>
		<path d="M48.8,120.7c-1-1-2-2.1-2.9-3.3H24.8v-35h14.9c1.2-3.6,2.9-6.9,5.1-10h-25c-2.8,0-5,2.2-5,5v45c0,2.8,2.2,5,5,5H58
			C54.6,125.7,51.5,123.5,48.8,120.7z"/>
		<path d="M182.4,115.1c-5.8-2.8-9.5-8.7-9.5-15.1s3.7-12.4,9.5-15.1c1.4-0.7,2.4-2,2.7-3.5s-0.1-3.1-1.2-4.3
			c-2.6-2.9-6.3-4.5-10.1-4.5h-68.1c2.2,3.1,3.9,6.4,5.1,10h58.6c-4.1,4.8-6.5,11-6.5,17.5c0,6.5,2.4,12.7,6.5,17.5h-64.8
			c-0.9,1.1-1.9,2.2-2.9,3.3c-2.7,2.7-5.8,5-9.2,6.7h81.3c3.8,0,7.5-1.6,10.1-4.5c1.1-1.2,1.5-2.8,1.2-4.3S183.8,115.8,182.4,115.1z
			"/>
	</g>
	<path d="M75.3,131.7c-10,0-19.4-3.9-26.5-11c-7.1-7.1-11-16.5-11-26.5s3.9-19.4,11-26.5c7.1-7.1,16.5-11,26.5-11
		c10,0,19.4,3.9,26.5,11l0,0l0,0c7.1,7.1,11,16.5,11,26.5s-3.9,19.4-11,26.5C94.7,127.8,85.3,131.7,75.3,131.7z M75.3,66.8
		c-7.3,0-14.2,2.9-19.4,8s-8,12.1-8,19.4c0,7.3,2.9,14.2,8,19.4c5.2,5.2,12.1,8,19.4,8c7.3,0,14.2-2.9,19.4-8c5.2-5.2,8-12.1,8-19.4
		c0-7.3-2.9-14.2-8-19.4l0,0C89.5,69.7,82.6,66.8,75.3,66.8z"/>
	<g>
		<line class="st0" x1="98.2" y1="117.2" x2="121.2" y2="140.2"/>
		<path d="M121.2,145.2c-1.3,0-2.6-0.5-3.5-1.5l-22.9-22.9c-2-2-2-5.1,0-7.1c2-2,5.1-2,7.1,0l22.9,22.9c2,2,2,5.1,0,7.1
			C123.7,144.7,122.4,145.2,121.2,145.2z"/>
	</g>
</g>
</svg>